<svg version="1.1" xmlns="http://www.w3.org/2000/svg" xmlns:xlink="http://www.w3.org/1999/xlink" width="42.10000228881836" height="30.61998748779297"><defs></defs><g transform="translate(-24.55000114440918,8.230010986328125)"><rect fill="rgb(255,255,255)" stroke="none" x="0" y="0" width="42.10000228881836" height="30.61998748779297" fill-opacity="0" transform="translate(24.55000114440918,-8.230010986328125)"></rect><g transform="translate(22.5,16) rotate(0,0,0) translate(-22.5,-16) matrix(1,0,0,1,22.5,16)"><path fill="rgb(0,0,0)" fill-opacity="1" d="M11.79 2.74Q7.79 6.27 5.52 6.27Q3.25 6.27 2.37 3.93L2.37 3.93Q2.05 3.11 2.05 2.40L2.05 2.40Q2.05 0.50 2.65-1.29Q3.25-3.08 3.84-4.63L3.84-4.63L6.42-11.28Q7.91-15.35 8.23-16.96Q8.55-18.57 8.14-19.15Q7.73-19.72 7.19-20.14Q6.65-20.57 6.17-20.90Q5.68-21.24 5.68-21.75Q5.68-22.27 6.11-22.73Q6.53-23.20 7.24-23.55L7.24-23.55Q8.64-24.23 10.15-24.23Q11.66-24.23 12.52-23.92Q13.39-23.61 13.95-23.14L13.95-23.14Q15.03-22.18 15.03-20.82Q15.03-19.45 14.58-17.75Q14.12-16.05 13.43-14.15Q12.74-12.25 11.89-10.20L11.89-10.20L10.28-6.15Q8.38-1.26 7.97 1.17L7.97 1.17Q10.72 0.23 15.26-5.57L15.26-5.57Q20.21-11.92 24.02-20.07L24.02-20.07Q24.46-21.09 25.11-21.39L25.11-21.39Q26.16-21.88 27.77-21.83L27.77-21.83Q30.32-21.74 30.41-20.24L30.41-20.24Q30.47-19.34 29.93-18.24Q29.38-17.14 29.03-16.41L29.03-16.41L27.89-14.06Q24.46-7.12 24.46-2.78L24.46-2.78Q24.46 0.23 26.10 1.35L26.10 1.35Q26.57 1.70 27.54 1.70Q28.51 1.70 29.82 1.01Q31.14 0.32 32.34-0.88Q33.54-2.08 34.58-3.68Q35.63-5.27 36.39-7.09L36.39-7.09Q38.00-10.93 38.00-13.89L38.00-13.89Q38.00-18.96 36.09-21.36L36.09-21.36Q35.45-22.12 36.47-23.14L36.47-23.14Q37.56-24.23 39.87-24.23L39.87-24.23Q42.71-24.23 43.74-21.04L43.74-21.04Q44.15-19.83 44.15-17.43Q44.15-15.03 43.30-12.08Q42.45-9.14 41.00-6.43Q39.55-3.72 37.66-1.38Q35.77 0.97 33.69 2.70L33.69 2.70Q29.24 6.39 25.43 6.39L25.43 6.39Q18.90 6.39 18.90-2.05L18.90-2.05Q18.90-3.98 19.25-5.83L19.25-5.83Q15.79-0.79 11.79 2.74Z"></path></g></g></svg>